
@startuml
skinparam State {
  AttributeFontSize 9
  BackgroundColor #CFF
  EndColor Red
  ArrowColor Blue
  BorderColor Black
}

skinparam Note {
  AttributeFontSize 9
  BackgroundColor white
  BorderColor Black
}


state sec2 {

note as Context
  **Context:**
  --
  ambientLight: //0.1//
end note



  [*]-->Night
  Day-->Night : [ambientLight < 0.5]
  Night-->Day : [ambientLight > 0.5]
  On-->Day    : [ambientLight > 0.5]
  Night-->On  : motion
  On-->On     : motion
  On-[#blue,dotted]->Night : 5 seconds
}
@enduml
